<svg width="24" height="24" viewBox="0 0 32 32" version="1.1" aria-hidden="false">
    <path d="M19.1263 28.2c-6.1826 2.1388-11.82761 1.2031-13.03726-2.4062-.40321-1.3368-.26881-2.6735.53762-4.144.40322-.6684.40322-1.7378.13441-2.5398l-.94084-3.0746c-.80643-2.1388-.53762-4.4113.26881-6.28281C6.62666 8.28215 7.5675 7.21273 8.91155 6.277l-.26881-.80206c-.40322-.80206.1344-1.87148.94083-2.13883l1.61283-.53471c.9409-.40103 1.8817.13368 2.1505 1.06942l.2688.80206c1.7473-.13368 3.3601.26735 4.8386 1.20309 1.6129 1.06941 2.8225 2.53985 3.4945 4.54503l1.0753 3.3419c.2688.6684.9408 1.6041 1.7472 1.8715 1.4785.5347 2.5537 1.4704 2.9569 2.8072 1.3441 3.3419-2.4193 7.6195-8.6019 9.7584zm6.0482-8.9564c-.5376-1.4704-4.3009-2.2725-9.4083-.5347s-7.52668 4.8124-6.98906 6.2828c.53762 1.4705 4.30096 2.2725 9.40836.5347s7.5267-4.8123 6.989-6.2828zm-10.0803 5.4808c-1.3441 0-2.4193-.6684-3.2257-1.6041-.1345-.1337-.1345-.4011 0-.5348.9408-.802 2.2848-1.6041 4.4353-2.4061.8064-.2674 1.6129-.5347 2.4193-.6684.2688 0 .4032.1337.4032.2673v.6684c0 1.6041-.9408 3.0746-2.2849 3.743.1344 0-.9408.5347-1.7472.5347z"></path>
</svg>